<?xml version="1.0" standalone="no"?>
<!DOCTYPE svg PUBLIC "-//W3C//DTD SVG 20010904//EN"
 "http://www.w3.org/TR/2001/REC-SVG-20010904/DTD/svg10.dtd">
<svg version="1.0" xmlns="http://www.w3.org/2000/svg"
 width="1838.000000pt" height="1838.000000pt" viewBox="0 0 1838.000000 1838.000000"
 preserveAspectRatio="xMidYMid meet">

<g transform="translate(0.000000,1838.000000) scale(0.100000,-0.100000)"
fill="#000000" stroke="none">
<path d="M8835 17504 c-600 -37 -1101 -112 -1630 -246 -1844 -465 -3473 -1551
-4620 -3080 -1303 -1735 -1873 -3907 -1594 -6068 286 -2222 1463 -4236 3267
-5592 1153 -867 2534 -1423 3962 -1597 334 -41 515 -53 900 -58 409 -6 639 3
980 38 2543 258 4825 1674 6200 3849 205 324 468 826 614 1172 372 880 574
1732 648 2733 26 351 14 960 -28 1375 -329 3323 -2656 6149 -5864 7125 -557
169 -1104 273 -1745 331 -160 15 -934 27 -1090 18z m262 -2580 c186 -47 353
-184 438 -359 65 -134 65 -126 65 -897 l0 -698 438 0 c241 0 499 -5 573 -11
862 -68 1599 -616 1915 -1424 97 -248 144 -510 144 -800 0 -370 -78 -699 -241
-1016 -67 -130 -190 -314 -275 -413 -119 -136 -113 -116 -51 -184 296 -321
502 -778 557 -1232 24 -197 8 -516 -35 -720 -174 -826 -829 -1501 -1650 -1701
-243 -59 -276 -61 -847 -66 l-528 -5 0 -692 c0 -657 -1 -697 -20 -770 -48
-188 -172 -343 -351 -436 -109 -57 -188 -73 -334 -67 -195 6 -318 60 -456 198
-61 61 -85 95 -121 170 -80 163 -75 107 -77 1006 l-1 602 -862 3 -863 3 -67
26 c-105 41 -176 87 -258 169 -62 61 -85 93 -122 170 -58 119 -72 179 -72 305
1 313 197 568 509 661 57 17 178 19 2080 24 2275 6 2050 -2 2232 85 299 145
493 452 493 780 0 369 -251 713 -600 823 -36 11 -76 24 -90 28 -14 5 -932 11
-2040 14 -1879 5 -2019 6 -2075 23 -197 57 -356 187 -438 357 -104 215 -100
421 11 635 55 104 173 219 282 273 170 84 -43 76 2225 82 2265 6 2047 -2 2222
80 393 183 591 630 462 1040 -87 278 -310 494 -599 582 l-75 23 -2015 5
c-1879 5 -2019 6 -2075 23 -198 57 -354 185 -438 357 -102 208 -102 402 0 610
38 78 61 109 127 175 87 87 167 135 291 176 l70 24 843 3 842 3 0 597 c1 725
3 811 25 882 63 203 210 368 400 447 44 18 102 33 185 47 42 7 187 -4 247 -20z"/>
</g>
</svg>
